<svg width="16" height="16" viewBox="0 0 16 16" fill="none" xmlns="http://www.w3.org/2000/svg">
<path d="M7.74992 5.65637C7.28637 5.65637 6.83323 5.79383 6.4478 6.05136C6.06237 6.3089 5.76197 6.67494 5.58457 7.10321C5.40718 7.53147 5.36077 8.00272 5.4512 8.45736C5.54164 8.912 5.76486 9.32962 6.09264 9.6574C6.42041 9.98518 6.83803 10.2084 7.29267 10.2988C7.74732 10.3893 8.21857 10.3429 8.64683 10.1655C9.07509 9.98807 9.44114 9.68766 9.69867 9.30224C9.95621 8.91681 10.0937 8.46367 10.0937 8.00012C10.0918 7.37909 9.84428 6.78402 9.40515 6.34489C8.96601 5.90575 8.37095 5.65823 7.74992 5.65637ZM12.8101 8.00012C12.8089 8.21912 12.7928 8.43778 12.762 8.65461L14.1885 9.77141C14.2506 9.82271 14.2925 9.89443 14.3066 9.97375C14.3207 10.0531 14.3062 10.1348 14.2655 10.2044L12.9161 12.5341C12.8751 12.6031 12.8111 12.6554 12.7353 12.6818C12.6595 12.7082 12.5769 12.707 12.5019 12.6785L10.8246 12.0047C10.4754 12.2736 10.0932 12.4968 9.68732 12.6689L9.43654 14.4495C9.4225 14.5293 9.3812 14.6017 9.3197 14.6544C9.25819 14.7071 9.1803 14.7368 9.09933 14.7384H6.4005C6.32101 14.7368 6.24438 14.7084 6.18314 14.6577C6.12189 14.607 6.07965 14.537 6.0633 14.4592L5.81251 12.6785C5.40554 12.5085 5.02307 12.285 4.67521 12.0138L2.99797 12.6876C2.92299 12.7162 2.84036 12.7173 2.76459 12.691C2.68882 12.6646 2.62477 12.6124 2.58371 12.5435L1.23429 10.2141C1.19368 10.1445 1.17913 10.0627 1.19324 9.98342C1.20736 9.90409 1.24922 9.83237 1.31135 9.78108L2.73781 8.66428C2.70738 8.44417 2.69133 8.22231 2.68976 8.00012C2.69098 7.78112 2.70703 7.56246 2.73781 7.34563L1.31135 6.22883C1.24922 6.17753 1.20736 6.10581 1.19324 6.02649C1.17913 5.94716 1.19368 5.86541 1.23429 5.79582L2.58371 3.46614C2.62473 3.39717 2.68876 3.34488 2.76453 3.31846C2.8403 3.29204 2.92296 3.29319 2.99797 3.3217L4.67521 3.99553C5.02446 3.72659 5.40666 3.50339 5.81251 3.33137L6.0633 1.55071C6.07733 1.47095 6.11863 1.39854 6.18014 1.34585C6.24164 1.29316 6.31953 1.26347 6.4005 1.26184H9.09933C9.17883 1.26339 9.25545 1.29184 9.3167 1.34255C9.37794 1.39326 9.42019 1.46323 9.43654 1.54104L9.68732 3.3217C10.0948 3.49162 10.4778 3.71517 10.8261 3.98645L12.5019 3.31262C12.5768 3.28408 12.6595 3.28289 12.7352 3.30925C12.811 3.33562 12.8751 3.38785 12.9161 3.45676L14.2655 5.78645C14.3062 5.85603 14.3207 5.93779 14.3066 6.01711C14.2925 6.09644 14.2506 6.16816 14.1885 6.21946L12.762 7.33625C12.7924 7.55626 12.8085 7.77802 12.8101 8.00012Z" fill="#99A7A1"/>
</svg>
