<svg width="15" height="16" viewBox="0 0 15 16" fill="none" xmlns="http://www.w3.org/2000/svg">
<path d="M9.74524 2.39175C9.17513 1.77622 8.37884 1.43726 7.49993 1.43726C6.61634 1.43726 5.81741 1.77417 5.24993 2.38589C4.6763 3.00435 4.39681 3.84487 4.46243 4.75249C4.59251 6.54311 5.95511 7.99975 7.49993 7.99975C9.04476 7.99975 10.405 6.54341 10.5371 4.75307C10.6036 3.85366 10.3224 3.01489 9.74524 2.39175Z" fill="white"/>
<path d="M12.6562 14.5616H2.34371C2.20873 14.5634 2.07505 14.535 1.95241 14.4786C1.82977 14.4222 1.72124 14.3392 1.63473 14.2356C1.4443 14.0079 1.36754 13.6971 1.42438 13.3827C1.67164 12.0111 2.44332 10.8588 3.65621 10.0499C4.73375 9.33186 6.09869 8.93665 7.49996 8.93665C8.90123 8.93665 10.2662 9.33215 11.3437 10.0499C12.5566 10.8585 13.3283 12.0108 13.5755 13.3824C13.6324 13.6968 13.5556 14.0076 13.3652 14.2353C13.2787 14.339 13.1702 14.422 13.0475 14.4785C12.9249 14.535 12.7912 14.5634 12.6562 14.5616Z" fill="white"/>
</svg>
