<svg width="16" height="16" viewBox="0 0 16 16" fill="none" xmlns="http://www.w3.org/2000/svg">
<g clip-path="url(#clip0_1_84)">
<path d="M13.1562 5.65625H9.875V2.375C9.875 2.00204 9.72684 1.64435 9.46312 1.38063C9.1994 1.11691 8.84171 0.96875 8.46875 0.96875H2.84375C2.47079 0.96875 2.1131 1.11691 1.84938 1.38063C1.58566 1.64435 1.4375 2.00204 1.4375 2.375V14.5625C1.4375 14.6868 1.48689 14.806 1.57479 14.894C1.6627 14.9819 1.78193 15.0312 1.90625 15.0312H4.95312C5.01529 15.0312 5.0749 15.0066 5.11885 14.9626C5.16281 14.9186 5.1875 14.859 5.1875 14.7969V12.7007C5.1875 12.4484 5.38145 12.2319 5.63369 12.2193C5.69707 12.2163 5.76041 12.2261 5.81987 12.2483C5.87933 12.2704 5.93368 12.3044 5.97962 12.3482C6.02555 12.392 6.06213 12.4446 6.08712 12.5029C6.11211 12.5613 6.12499 12.624 6.125 12.6875V14.7969C6.125 14.859 6.14969 14.9186 6.19365 14.9626C6.2376 15.0066 6.29721 15.0312 6.35938 15.0312H14.0938C14.2181 15.0312 14.3373 14.9819 14.4252 14.894C14.5131 14.806 14.5625 14.6868 14.5625 14.5625V7.0625C14.5625 6.68954 14.4143 6.33185 14.1506 6.06813C13.8869 5.80441 13.5292 5.65625 13.1562 5.65625ZM3.37344 13.1524C3.27636 13.1651 3.17774 13.1471 3.09142 13.1009C3.0051 13.0547 2.93542 12.9826 2.89215 12.8948C2.84889 12.807 2.83421 12.7078 2.85018 12.6112C2.86615 12.5146 2.91196 12.4254 2.98119 12.3562C3.05042 12.287 3.1396 12.2411 3.23619 12.2252C3.33279 12.2092 3.43196 12.2239 3.51979 12.2672C3.60762 12.3104 3.6797 12.3801 3.72591 12.4664C3.77212 12.5527 3.79014 12.6514 3.77744 12.7484C3.76404 12.8509 3.71717 12.946 3.64411 13.0191C3.57104 13.0922 3.47589 13.139 3.37344 13.1524ZM3.37344 10.8087C3.27636 10.8214 3.17774 10.8034 3.09142 10.7572C3.0051 10.7109 2.93542 10.6389 2.89215 10.551C2.84889 10.4632 2.83421 10.364 2.85018 10.2674C2.86615 10.1708 2.91196 10.0817 2.98119 10.0124C3.05042 9.94321 3.1396 9.8974 3.23619 9.88143C3.33279 9.86546 3.43196 9.88014 3.51979 9.9234C3.60762 9.96667 3.6797 10.0364 3.72591 10.1227C3.77212 10.209 3.79014 10.3076 3.77744 10.4047C3.76404 10.5071 3.71717 10.6023 3.64411 10.6754C3.57104 10.7484 3.47589 10.7953 3.37344 10.8087ZM3.37344 8.46494C3.27636 8.47764 3.17774 8.45962 3.09142 8.41341C3.0051 8.3672 2.93542 8.29512 2.89215 8.20729C2.84889 8.11946 2.83421 8.02029 2.85018 7.92369C2.86615 7.8271 2.91196 7.73793 2.98119 7.66869C3.05042 7.59946 3.1396 7.55365 3.23619 7.53768C3.33279 7.52171 3.43196 7.53639 3.51979 7.57965C3.60762 7.62292 3.6797 7.6926 3.72591 7.77892C3.77212 7.86524 3.79014 7.96386 3.77744 8.06094C3.76404 8.16339 3.71717 8.25854 3.64411 8.33161C3.57104 8.40467 3.47589 8.45154 3.37344 8.46494ZM3.37344 6.12119C3.27636 6.13389 3.17774 6.11587 3.09142 6.06966C3.0051 6.02345 2.93542 5.95137 2.89215 5.86354C2.84889 5.77571 2.83421 5.67654 2.85018 5.57994C2.86615 5.48335 2.91196 5.39418 2.98119 5.32494C3.05042 5.25571 3.1396 5.2099 3.23619 5.19393C3.33279 5.17796 3.43196 5.19264 3.51979 5.2359C3.60762 5.27917 3.6797 5.34885 3.72591 5.43517C3.77212 5.52149 3.79014 5.62011 3.77744 5.71719C3.76404 5.81964 3.71717 5.91479 3.64411 5.98786C3.57104 6.06092 3.47589 6.10779 3.37344 6.12119ZM3.37344 3.77744C3.27636 3.79014 3.17774 3.77212 3.09142 3.72591C3.0051 3.6797 2.93542 3.60762 2.89215 3.51979C2.84889 3.43196 2.83421 3.33279 2.85018 3.23619C2.86615 3.1396 2.91196 3.05042 2.98119 2.98119C3.05042 2.91196 3.1396 2.86615 3.23619 2.85018C3.33279 2.83421 3.43196 2.84889 3.51979 2.89215C3.60762 2.93542 3.6797 3.0051 3.72591 3.09142C3.77212 3.17774 3.79014 3.27636 3.77744 3.37344C3.76404 3.47589 3.71717 3.57104 3.64411 3.64411C3.57104 3.71717 3.47589 3.76404 3.37344 3.77744ZM5.71719 10.8087C5.62011 10.8214 5.52149 10.8034 5.43517 10.7572C5.34885 10.7109 5.27917 10.6389 5.2359 10.551C5.19264 10.4632 5.17796 10.364 5.19393 10.2674C5.2099 10.1708 5.25571 10.0817 5.32494 10.0124C5.39418 9.94321 5.48335 9.8974 5.57994 9.88143C5.67654 9.86546 5.77571 9.88014 5.86354 9.9234C5.95137 9.96667 6.02345 10.0364 6.06966 10.1227C6.11587 10.209 6.13389 10.3076 6.12119 10.4047C6.10779 10.5071 6.06092 10.6023 5.98786 10.6754C5.91479 10.7484 5.81964 10.7953 5.71719 10.8087ZM5.71719 8.46494C5.62011 8.47764 5.52149 8.45962 5.43517 8.41341C5.34885 8.3672 5.27917 8.29512 5.2359 8.20729C5.19264 8.11946 5.17796 8.02029 5.19393 7.92369C5.2099 7.8271 5.25571 7.73793 5.32494 7.66869C5.39418 7.59946 5.48335 7.55365 5.57994 7.53768C5.67654 7.52171 5.77571 7.53639 5.86354 7.57965C5.95137 7.62292 6.02345 7.6926 6.06966 7.77892C6.11587 7.86524 6.13389 7.96386 6.12119 8.06094C6.10779 8.16339 6.06092 8.25854 5.98786 8.33161C5.91479 8.40467 5.81964 8.45154 5.71719 8.46494ZM5.71719 6.12119C5.62011 6.13389 5.52149 6.11587 5.43517 6.06966C5.34885 6.02345 5.27917 5.95137 5.2359 5.86354C5.19264 5.77571 5.17796 5.67654 5.19393 5.57994C5.2099 5.48335 5.25571 5.39418 5.32494 5.32494C5.39418 5.25571 5.48335 5.2099 5.57994 5.19393C5.67654 5.17796 5.77571 5.19264 5.86354 5.2359C5.95137 5.27917 6.02345 5.34885 6.06966 5.43517C6.11587 5.52149 6.13389 5.62011 6.12119 5.71719C6.10779 5.81964 6.06092 5.91479 5.98786 5.98786C5.91479 6.06092 5.81964 6.10779 5.71719 6.12119ZM5.71719 3.77744C5.62011 3.79014 5.52149 3.77212 5.43517 3.72591C5.34885 3.6797 5.27917 3.60762 5.2359 3.51979C5.19264 3.43196 5.17796 3.33279 5.19393 3.23619C5.2099 3.1396 5.25571 3.05042 5.32494 2.98119C5.39418 2.91196 5.48335 2.86615 5.57994 2.85018C5.67654 2.83421 5.77571 2.84889 5.86354 2.89215C5.95137 2.93542 6.02345 3.0051 6.06966 3.09142C6.11587 3.17774 6.13389 3.27636 6.12119 3.37344C6.10779 3.47589 6.06092 3.57104 5.98786 3.64411C5.91479 3.71717 5.81964 3.76404 5.71719 3.77744ZM8.06094 13.1524C7.96386 13.1651 7.86524 13.1471 7.77892 13.1009C7.6926 13.0547 7.62292 12.9826 7.57965 12.8948C7.53639 12.807 7.52171 12.7078 7.53768 12.6112C7.55365 12.5146 7.59946 12.4254 7.66869 12.3562C7.73793 12.287 7.8271 12.2411 7.92369 12.2252C8.02029 12.2092 8.11946 12.2239 8.20729 12.2672C8.29512 12.3104 8.3672 12.3801 8.41341 12.4664C8.45962 12.5527 8.47764 12.6514 8.46494 12.7484C8.45154 12.8509 8.40467 12.946 8.33161 13.0191C8.25854 13.0922 8.16339 13.139 8.06094 13.1524ZM8.06094 10.8087C7.96386 10.8214 7.86524 10.8034 7.77892 10.7572C7.6926 10.7109 7.62292 10.6389 7.57965 10.551C7.53639 10.4632 7.52171 10.364 7.53768 10.2674C7.55365 10.1708 7.59946 10.0817 7.66869 10.0124C7.73793 9.94321 7.8271 9.8974 7.92369 9.88143C8.02029 9.86546 8.11946 9.88014 8.20729 9.9234C8.29512 9.96667 8.3672 10.0364 8.41341 10.1227C8.45962 10.209 8.47764 10.3076 8.46494 10.4047C8.45154 10.5071 8.40467 10.6023 8.33161 10.6754C8.25854 10.7484 8.16339 10.7953 8.06094 10.8087ZM8.06094 8.46494C7.96386 8.47764 7.86524 8.45962 7.77892 8.41341C7.6926 8.3672 7.62292 8.29512 7.57965 8.20729C7.53639 8.11946 7.52171 8.02029 7.53768 7.92369C7.55365 7.8271 7.59946 7.73793 7.66869 7.66869C7.73793 7.59946 7.8271 7.55365 7.92369 7.53768C8.02029 7.52171 8.11946 7.53639 8.20729 7.57965C8.29512 7.62292 8.3672 7.6926 8.41341 7.77892C8.45962 7.86524 8.47764 7.96386 8.46494 8.06094C8.45154 8.16339 8.40467 8.25854 8.33161 8.33161C8.25854 8.40467 8.16339 8.45154 8.06094 8.46494ZM8.06094 6.12119C7.96386 6.13389 7.86524 6.11587 7.77892 6.06966C7.6926 6.02345 7.62292 5.95137 7.57965 5.86354C7.53639 5.77571 7.52171 5.67654 7.53768 5.57994C7.55365 5.48335 7.59946 5.39418 7.66869 5.32494C7.73793 5.25571 7.8271 5.2099 7.92369 5.19393C8.02029 5.17796 8.11946 5.19264 8.20729 5.2359C8.29512 5.27917 8.3672 5.34885 8.41341 5.43517C8.45962 5.52149 8.47764 5.62011 8.46494 5.71719C8.45154 5.81964 8.40467 5.91479 8.33161 5.98786C8.25854 6.06092 8.16339 6.10779 8.06094 6.12119ZM8.06094 3.77744C7.96386 3.79014 7.86524 3.77212 7.77892 3.72591C7.6926 3.6797 7.62292 3.60762 7.57965 3.51979C7.53639 3.43196 7.52171 3.33279 7.53768 3.23619C7.55365 3.1396 7.59946 3.05042 7.66869 2.98119C7.73793 2.91196 7.8271 2.86615 7.92369 2.85018C8.02029 2.83421 8.11946 2.84889 8.20729 2.89215C8.29512 2.93542 8.3672 3.0051 8.41341 3.09142C8.45962 3.17774 8.47764 3.27636 8.46494 3.37344C8.45154 3.47589 8.40467 3.57104 8.33161 3.64411C8.25854 3.71717 8.16339 3.76404 8.06094 3.77744ZM13.5078 14.0938H9.875V6.59375H13.1562C13.2806 6.59375 13.3998 6.64314 13.4877 6.73104C13.5756 6.81895 13.625 6.93818 13.625 7.0625V13.9766C13.625 14.0076 13.6127 14.0374 13.5907 14.0594C13.5687 14.0814 13.5389 14.0938 13.5078 14.0938Z" fill="white"/>
<path d="M12.2188 12.2188C12.126 12.2188 12.0354 12.2462 11.9583 12.2977C11.8812 12.3493 11.8212 12.4225 11.7857 12.5081C11.7502 12.5938 11.7409 12.688 11.759 12.7789C11.7771 12.8699 11.8217 12.9534 11.8873 13.019C11.9528 13.0845 12.0364 13.1292 12.1273 13.1472C12.2182 13.1653 12.3125 13.156 12.3981 13.1206C12.4838 13.0851 12.557 13.025 12.6085 12.9479C12.66 12.8708 12.6875 12.7802 12.6875 12.6875C12.6875 12.5632 12.6381 12.444 12.5502 12.356C12.4623 12.2681 12.3431 12.2188 12.2188 12.2188ZM12.2188 9.875C12.126 9.875 12.0354 9.90249 11.9583 9.954C11.8812 10.0055 11.8212 10.0787 11.7857 10.1644C11.7502 10.25 11.7409 10.3443 11.759 10.4352C11.7771 10.5261 11.8217 10.6097 11.8873 10.6752C11.9528 10.7408 12.0364 10.7854 12.1273 10.8035C12.2182 10.8216 12.3125 10.8123 12.3981 10.7768C12.4838 10.7413 12.557 10.6813 12.6085 10.6042C12.66 10.5271 12.6875 10.4365 12.6875 10.3438C12.6875 10.2194 12.6381 10.1002 12.5502 10.0123C12.4623 9.92439 12.3431 9.875 12.2188 9.875ZM12.2188 7.53125C12.126 7.53125 12.0354 7.55874 11.9583 7.61025C11.8812 7.66176 11.8212 7.73496 11.7857 7.82062C11.7502 7.90627 11.7409 8.00052 11.759 8.09145C11.7771 8.18238 11.8217 8.2659 11.8873 8.33146C11.9528 8.39701 12.0364 8.44166 12.1273 8.45974C12.2182 8.47783 12.3125 8.46855 12.3981 8.43307C12.4838 8.39759 12.557 8.33751 12.6085 8.26042C12.66 8.18334 12.6875 8.09271 12.6875 8C12.6875 7.87568 12.6381 7.75645 12.5502 7.66854C12.4623 7.58064 12.3431 7.53125 12.2188 7.53125ZM10.3438 12.2188C10.251 12.2188 10.1604 12.2462 10.0833 12.2977C10.0062 12.3493 9.94616 12.4225 9.91068 12.5081C9.8752 12.5938 9.86592 12.688 9.88401 12.7789C9.90209 12.8699 9.94674 12.9534 10.0123 13.019C10.0778 13.0845 10.1614 13.1292 10.2523 13.1472C10.3432 13.1653 10.4375 13.156 10.5231 13.1206C10.6088 13.0851 10.682 13.025 10.7335 12.9479C10.785 12.8708 10.8125 12.7802 10.8125 12.6875C10.8125 12.5632 10.7631 12.444 10.6752 12.356C10.5873 12.2681 10.4681 12.2188 10.3438 12.2188ZM10.3438 9.875C10.251 9.875 10.1604 9.90249 10.0833 9.954C10.0062 10.0055 9.94616 10.0787 9.91068 10.1644C9.8752 10.25 9.86592 10.3443 9.88401 10.4352C9.90209 10.5261 9.94674 10.6097 10.0123 10.6752C10.0778 10.7408 10.1614 10.7854 10.2523 10.8035C10.3432 10.8216 10.4375 10.8123 10.5231 10.7768C10.6088 10.7413 10.682 10.6813 10.7335 10.6042C10.785 10.5271 10.8125 10.4365 10.8125 10.3438C10.8125 10.2194 10.7631 10.1002 10.6752 10.0123C10.5873 9.92439 10.4681 9.875 10.3438 9.875ZM10.3438 7.53125C10.251 7.53125 10.1604 7.55874 10.0833 7.61025C10.0062 7.66176 9.94616 7.73496 9.91068 7.82062C9.8752 7.90627 9.86592 8.00052 9.88401 8.09145C9.90209 8.18238 9.94674 8.2659 10.0123 8.33146C10.0778 8.39701 10.1614 8.44166 10.2523 8.45974C10.3432 8.47783 10.4375 8.46855 10.5231 8.43307C10.6088 8.39759 10.682 8.33751 10.7335 8.26042C10.785 8.18334 10.8125 8.09271 10.8125 8C10.8125 7.87568 10.7631 7.75645 10.6752 7.66854C10.5873 7.58064 10.4681 7.53125 10.3438 7.53125Z" fill="white"/>
</g>
<defs>
<clipPath id="clip0_1_84">
<rect width="15" height="15" fill="white" transform="translate(0.5 0.5)"/>
</clipPath>
</defs>
</svg>
