<svg width="16" height="16" viewBox="0 0 16 16" fill="none" xmlns="http://www.w3.org/2000/svg">
<path fill-rule="evenodd" clip-rule="evenodd" d="M8 1.125C7.82083 1.12498 7.64376 1.16347 7.48077 1.23787C7.31778 1.31227 7.17269 1.42083 7.05533 1.55621C6.93797 1.69159 6.85109 1.85061 6.80056 2.02251C6.75004 2.1944 6.73706 2.37515 6.7625 2.5525C5.85648 2.81968 5.06127 3.37292 4.49575 4.12951C3.93022 4.88611 3.62475 5.80541 3.625 6.75V11.75H3C2.83424 11.75 2.67527 11.8158 2.55806 11.9331C2.44085 12.0503 2.375 12.2092 2.375 12.375C2.375 12.5408 2.44085 12.6997 2.55806 12.8169C2.67527 12.9342 2.83424 13 3 13H13C13.1658 13 13.3247 12.9342 13.4419 12.8169C13.5592 12.6997 13.625 12.5408 13.625 12.375C13.625 12.2092 13.5592 12.0503 13.4419 11.9331C13.3247 11.8158 13.1658 11.75 13 11.75H12.375V6.75C12.3753 5.80541 12.0698 4.88611 11.5043 4.12951C10.9387 3.37292 10.1435 2.81968 9.2375 2.5525C9.24583 2.49417 9.25 2.435 9.25 2.375C9.25 2.04348 9.1183 1.72554 8.88388 1.49112C8.64946 1.2567 8.33152 1.125 8 1.125ZM9.25 14.25C9.25 14.4158 9.18415 14.5747 9.06694 14.6919C8.94973 14.8092 8.79076 14.875 8.625 14.875H7.375C7.20924 14.875 7.05027 14.8092 6.93306 14.6919C6.81585 14.5747 6.75 14.4158 6.75 14.25C6.75 14.0842 6.81585 13.9253 6.93306 13.8081C7.05027 13.6908 7.20924 13.625 7.375 13.625H8.625C8.79076 13.625 8.94973 13.6908 9.06694 13.8081C9.18415 13.9253 9.25 14.0842 9.25 14.25Z" fill="white"/>
</svg>
